<svg id="linkedin" xmlns="http://www.w3.org/2000/svg" width="33.439" height="33.439" viewBox="0 0 33.439 33.439">
  <defs>
    <style>
      .cls-1 {
        fill: #fff;
      }
    </style>
  </defs>
  <path id="Path_4287" data-name="Path 4287" class="cls-1" d="M30.092,30.46H30.1V18.2c0-6-1.292-10.621-8.305-10.621a7.281,7.281,0,0,0-6.558,3.6h-.1V8.134H8.489V30.459h6.925V19.4c0-2.911.552-5.725,4.156-5.725,3.551,0,3.6,3.322,3.6,5.912V30.46Z" transform="translate(3.339 2.979)"/>
  <path id="Path_4288" data-name="Path 4288" class="cls-1" d="M.4,7.977H7.329V30.3H.4Z" transform="translate(0.156 3.137)"/>
  <path id="Path_4289" data-name="Path 4289" class="cls-1" d="M4.015,0A4.034,4.034,0,1,0,8.031,4.015,4.017,4.017,0,0,0,4.015,0Z"/>
</svg>
