<svg xmlns="http://www.w3.org/2000/svg" xmlns:xlink="http://www.w3.org/1999/xlink" width="160" height="160" viewBox="0 0 160 160">
  <defs>
    <clipPath id="clip-path">
      <path id="Caminho_2191" data-name="Caminho 2191" d="M891.854,582.874a.742.742,0,0,1,.308-.68l-5.62,3.266a.741.741,0,0,0-.308.68h0v0c.122-.067.284-.161.4-.233.065-.036.149-.086.211-.122.44-.258.881-.51,1.325-.769q.939-.545,1.879-1.093l1.8-1.046q-2.812,1.635-5.62,3.266h0a2.325,2.325,0,0,0,1.054,1.834l5.621-3.266A2.328,2.328,0,0,1,891.854,582.874Z" transform="translate(-886.234 -582.194)" fill="none"/>
    </clipPath>
    <clipPath id="clip-path-2">
      <path id="Caminho_2202" data-name="Caminho 2202" d="M892.511,582.113c-.083.05-.2.114-.282.164l-5.339,3.1a.753.753,0,0,1,.755.075l5.62-3.266A.747.747,0,0,0,892.511,582.113Z" transform="translate(-886.891 -582.042)" fill="none"/>
    </clipPath>
    <clipPath id="clip-path-3">
      <path id="Caminho_2214" data-name="Caminho 2214" d="M943.744,615.855a.75.75,0,0,1-.756-.075l-5.621,3.263a.74.74,0,0,0,.757.078C939.811,618.141,942.06,616.837,943.744,615.855Z" transform="translate(-937.367 -615.78)" fill="none"/>
    </clipPath>
    <clipPath id="clip-path-4">
      <path id="Caminho_2231" data-name="Caminho 2231" d="M938.132,616.356q2.809-1.632,5.62-3.266a.748.748,0,0,0,.311-.682,2.324,2.324,0,0,0-1.06-1.832l-5.62,3.266a2.311,2.311,0,0,1,1.06,1.829A.746.746,0,0,1,938.132,616.356Z" transform="translate(-937.382 -610.576)" fill="none"/>
    </clipPath>
  </defs>
  <g id="Grupo_1070" data-name="Grupo 1070" transform="translate(87 -2505)">
    <rect id="Retângulo_1617" data-name="Retângulo 1617" width="160" height="160" transform="translate(-87 2505)" fill="none"/>
    <g id="Grupo_1068" data-name="Grupo 1068" transform="translate(-897.524 1955.584)">
      <g id="Grupo_716" data-name="Grupo 716" transform="translate(854.524 559.416)">
        <g id="Grupo_715" data-name="Grupo 715">
          <g id="Grupo_689" data-name="Grupo 689" transform="translate(0.02 97.009)">
            <path id="Caminho_2170" data-name="Caminho 2170" d="M907.721,800.337l5.621-3.266L860.187,766.38l-5.621,3.266Z" transform="translate(-854.566 -766.38)" fill="#bfd4db"/>
          </g>
          <path id="Caminho_2171" data-name="Caminho 2171" d="M966.487,841.817l.018-6.693,5.62-3.266-.018,6.693a3.057,3.057,0,0,1-1.274,2.794q-2.81,1.632-5.62,3.266A3.057,3.057,0,0,0,966.487,841.817Z" transform="translate(-913.33 -704.158)" fill="#b3bdd6"/>
          <g id="Grupo_691" data-name="Grupo 691" transform="translate(0 100.275)">
            <g id="Grupo_690" data-name="Grupo 690">
              <path id="Caminho_2172" data-name="Caminho 2172" d="M907.68,810.733l.018-6.693-53.155-30.692-.02,6.7a9.567,9.567,0,0,0,4.345,7.523L903.3,813.222C905.709,814.612,907.671,813.5,907.68,810.733Z" transform="translate(-854.524 -773.348)" fill="#9ca8c1"/>
            </g>
          </g>
          <g id="Grupo_692" data-name="Grupo 692" transform="translate(53.174 37.672)">
            <path id="Caminho_2173" data-name="Caminho 2173" d="M967.969,733.082l5.621-3.266.254-90.029-5.621,3.266Z" transform="translate(-967.969 -639.787)" fill="#2e2e30"/>
          </g>
          <g id="Grupo_693" data-name="Grupo 693" transform="translate(0.274 6.983)">
            <path id="Caminho_2174" data-name="Caminho 2174" d="M908.262,608.269,913.883,605l-53.155-30.688-5.621,3.266Z" transform="translate(-855.107 -574.314)" fill="#35c2da"/>
          </g>
          <g id="Grupo_694" data-name="Grupo 694" transform="translate(0.02 10.249)">
            <path id="Caminho_2175" data-name="Caminho 2175" d="M854.82,581.282l-.254,90.026L907.721,702l.254-90.029Z" transform="translate(-854.566 -581.282)" fill="#383f51"/>
          </g>
          <g id="Grupo_697" data-name="Grupo 697" transform="translate(14.863 10.676)" style="isolation: isolate">
            <g id="Grupo_696" data-name="Grupo 696" clip-path="url(#clip-path)">
              <g id="Grupo_695" data-name="Grupo 695" style="isolation: isolate">
                <path id="Caminho_2176" data-name="Caminho 2176" d="M888.083,590.513l5.621-3.266a1.8,1.8,0,0,1-.352-.275l-5.621,3.266a1.59,1.59,0,0,0,.353.275Z" transform="translate(-887.029 -584.732)" fill="#b2c5cc"/>
                <path id="Caminho_2177" data-name="Caminho 2177" d="M887.6,590.1l5.621-3.266c-.04-.039-.078-.081-.115-.122l-5.62,3.267c.037.041.075.083.115.122Z" transform="translate(-886.899 -584.594)" fill="#adc0c7"/>
                <path id="Caminho_2178" data-name="Caminho 2178" d="M887.388,589.859l5.62-3.267c-.03-.033-.06-.069-.087-.105l-5.62,3.266c.027.036.055.072.086.106Z" transform="translate(-886.801 -584.475)" fill="#a9bbc2"/>
                <path id="Caminho_2179" data-name="Caminho 2179" d="M887.222,589.646l5.62-3.266c-.024-.031-.047-.061-.071-.095l-5.62,3.266c.022.033.046.064.071.095Z" transform="translate(-886.721 -584.367)" fill="#a4b6bd"/>
                <path id="Caminho_2180" data-name="Caminho 2180" d="M887.082,589.447l5.619-3.266c-.02-.028-.042-.061-.06-.091l-5.621,3.266c.018.031.042.058.061.091Z" transform="translate(-886.652 -584.264)" fill="#a0b1b8"/>
                <path id="Caminho_2181" data-name="Caminho 2181" d="M886.958,589.255l5.621-3.266c-.02-.028-.038-.059-.056-.089l-5.621,3.267c.018.03.035.058.056.089Z" transform="translate(-886.589 -584.163)" fill="#9bacb3"/>
                <path id="Caminho_2182" data-name="Caminho 2182" d="M886.847,589.066l5.621-3.267c-.015-.03-.032-.061-.048-.089l-5.621,3.266c.016.03.033.058.048.089Z" transform="translate(-886.534 -584.062)" fill="#97a7ad"/>
                <path id="Caminho_2183" data-name="Caminho 2183" d="M886.749,588.877l5.621-3.266c-.017-.03-.032-.061-.044-.089l-5.621,3.263a.762.762,0,0,0,.045.091Z" transform="translate(-886.484 -583.962)" fill="#93a2a8"/>
                <path id="Caminho_2184" data-name="Caminho 2184" d="M886.654,588.678l5.621-3.263c-.017-.034-.031-.064-.044-.095l-5.621,3.266c.014.03.028.064.045.092Z" transform="translate(-886.433 -583.855)" fill="#8e9da3"/>
                <path id="Caminho_2185" data-name="Caminho 2185" d="M886.567,588.479l5.621-3.266c-.013-.031-.026-.061-.038-.094l-5.621,3.266c.012.031.025.064.038.094Z" transform="translate(-886.391 -583.748)" fill="#8a999e"/>
                <path id="Caminho_2186" data-name="Caminho 2186" d="M886.487,588.269,892.108,585c-.013-.033-.025-.067-.038-.1l-5.62,3.269.037.1Z" transform="translate(-886.349 -583.632)" fill="#859499"/>
                <path id="Caminho_2187" data-name="Caminho 2187" d="M886.414,588.049l5.62-3.269c-.009-.033-.022-.069-.033-.106l-5.619,3.266c.009.033.022.072.032.108Z" transform="translate(-886.313 -583.512)" fill="#818f94"/>
                <path id="Caminho_2188" data-name="Caminho 2188" d="M886.349,587.8l5.619-3.266c-.011-.039-.02-.083-.028-.125l-5.621,3.269c.008.038.018.08.03.122Z" transform="translate(-886.279 -583.37)" fill="#7c8a8f"/>
                <path id="Caminho_2189" data-name="Caminho 2189" d="M886.289,587.511l5.621-3.269a.7.7,0,0,1-.026-.147l-5.621,3.266c.006.05.016.1.026.15Z" transform="translate(-886.249 -583.204)" fill="#78858a"/>
                <path id="Caminho_2190" data-name="Caminho 2190" d="M886.248,586.351l5.621-3.266a1.355,1.355,0,0,1-.014-.211.742.742,0,0,1,.308-.68l-5.62,3.266a.741.741,0,0,0-.308.68,1.538,1.538,0,0,0,.014.211Z" transform="translate(-886.234 -582.194)" fill="#738085"/>
              </g>
            </g>
          </g>
          <g id="Grupo_700" data-name="Grupo 700" transform="translate(15.171 10.605)" style="isolation: isolate">
            <g id="Grupo_699" data-name="Grupo 699" clip-path="url(#clip-path-2)">
              <g id="Grupo_698" data-name="Grupo 698" transform="translate(0 -0.001)" style="isolation: isolate">
                <path id="Caminho_2192" data-name="Caminho 2192" d="M888.332,585.535l5.62-3.266a1.2,1.2,0,0,0-.15-.075l-5.62,3.266c.047.022.1.047.15.075Z" transform="translate(-887.577 -582.122)" fill="#32b5ca"/>
                <path id="Caminho_2193" data-name="Caminho 2193" d="M888.04,585.413l5.62-3.266a.554.554,0,0,0-.126-.042l-5.62,3.267a.727.727,0,0,1,.125.041Z" transform="translate(-887.435 -582.074)" fill="#30b0c5"/>
                <path id="Caminho_2194" data-name="Caminho 2194" d="M887.809,585.35l5.62-3.267a.37.37,0,0,0-.092-.019l-5.621,3.263a.559.559,0,0,1,.093.022Z" transform="translate(-887.329 -582.053)" fill="#2facc0"/>
                <path id="Caminho_2195" data-name="Caminho 2195" d="M887.627,585.315l5.621-3.263c-.028-.006-.052-.008-.079-.011l-5.62,3.267.079.008Z" transform="translate(-887.24 -582.04)" fill="#2ea7bb"/>
                <path id="Caminho_2196" data-name="Caminho 2196" d="M887.469,585.307l5.62-3.267a.577.577,0,0,0-.069,0l-5.62,3.266a.678.678,0,0,1,.069,0Z" transform="translate(-887.161 -582.04)" fill="#2da3b6"/>
                <path id="Caminho_2197" data-name="Caminho 2197" d="M887.326,585.312l5.62-3.266a.262.262,0,0,0-.065.008l-5.62,3.263a.513.513,0,0,1,.065-.006Z" transform="translate(-887.088 -582.043)" fill="#2b9eb1"/>
                <path id="Caminho_2198" data-name="Caminho 2198" d="M887.195,585.327l5.62-3.263a.4.4,0,0,0-.058.011l-5.621,3.266.059-.014Z" transform="translate(-887.021 -582.053)" fill="#2a9aac"/>
                <path id="Caminho_2199" data-name="Caminho 2199" d="M887.072,585.354l5.621-3.266a.386.386,0,0,0-.057.022l-5.621,3.266.057-.022Z" transform="translate(-886.957 -582.066)" fill="#2995a7"/>
                <path id="Caminho_2200" data-name="Caminho 2200" d="M886.955,585.4l5.621-3.266a.233.233,0,0,0-.053.025l-5.621,3.266a.255.255,0,0,1,.053-.025Z" transform="translate(-886.897 -582.091)" fill="#2891a2"/>
                <path id="Caminho_2201" data-name="Caminho 2201" d="M886.9,585.454l5.621-3.266-.006,0-5.62,3.266s0,0,.005,0Z" transform="translate(-886.891 -582.119)" fill="#268c9d"/>
              </g>
            </g>
          </g>
          <g id="Grupo_701" data-name="Grupo 701" transform="translate(15.918 13.191)">
            <path id="Caminho_2203" data-name="Caminho 2203" d="M911.4,604.05l5.621-3.263L894.1,587.558l-5.62,3.266Z" transform="translate(-888.483 -587.558)" fill="#bfd4db"/>
          </g>
          <g id="Grupo_704" data-name="Grupo 704" transform="translate(38.831 26.419)" style="isolation: isolate">
            <g id="Grupo_703" data-name="Grupo 703" clip-path="url(#clip-path-3)">
              <g id="Grupo_702" data-name="Grupo 702" style="isolation: isolate">
                <path id="Caminho_2204" data-name="Caminho 2204" d="M938.977,619.206l5.619-3.266s0,0,0,0l-5.621,3.266.006,0Z" transform="translate(-938.219 -615.865)" fill="#8a999e"/>
                <path id="Caminho_2205" data-name="Caminho 2205" d="M938.911,619.212l5.621-3.266a.564.564,0,0,1-.052.028l-5.621,3.266a.589.589,0,0,0,.052-.028Z" transform="translate(-938.16 -615.868)" fill="#8e9da3"/>
                <path id="Caminho_2206" data-name="Caminho 2206" d="M938.795,619.271l5.621-3.266a.356.356,0,0,1-.057.019l-5.62,3.266a.4.4,0,0,0,.057-.019Z" transform="translate(-938.095 -615.9)" fill="#93a2a8"/>
                <path id="Caminho_2207" data-name="Caminho 2207" d="M938.672,619.312l5.62-3.266a.365.365,0,0,0-.057.014l-5.622,3.266a.441.441,0,0,0,.059-.014Z" transform="translate(-938.029 -615.921)" fill="#97a7ad"/>
                <path id="Caminho_2208" data-name="Caminho 2208" d="M938.541,619.342l5.622-3.266a.518.518,0,0,1-.065.006l-5.621,3.269.064-.009Z" transform="translate(-937.957 -615.937)" fill="#9bacb3"/>
                <path id="Caminho_2209" data-name="Caminho 2209" d="M938.4,619.357l5.621-3.269a.305.305,0,0,1-.071,0l-5.621,3.269Z" transform="translate(-937.877 -615.944)" fill="#a0b1b8"/>
                <path id="Caminho_2210" data-name="Caminho 2210" d="M938.236,619.351l5.621-3.269a.768.768,0,0,1-.079-.006l-5.621,3.266a.385.385,0,0,0,.079.009Z" transform="translate(-937.787 -615.937)" fill="#a4b6bd"/>
                <path id="Caminho_2211" data-name="Caminho 2211" d="M938.052,619.32l5.621-3.266c-.032-.006-.062-.011-.094-.019l-5.62,3.263a.608.608,0,0,0,.093.022Z" transform="translate(-937.682 -615.916)" fill="#a9bbc2"/>
                <path id="Caminho_2212" data-name="Caminho 2212" d="M937.817,619.248l5.62-3.263c-.042-.014-.082-.028-.124-.044l-5.621,3.266a.772.772,0,0,0,.125.042Z" transform="translate(-937.54 -615.865)" fill="#adc0c7"/>
                <path id="Caminho_2213" data-name="Caminho 2213" d="M937.519,619.121l5.621-3.266c-.051-.022-.1-.047-.152-.075l-5.621,3.263a.938.938,0,0,0,.152.078Z" transform="translate(-937.367 -615.78)" fill="#b2c5cc"/>
              </g>
            </g>
          </g>
          <g id="Grupo_705" data-name="Grupo 705" transform="translate(15.926 10.752)">
            <path id="Caminho_2215" data-name="Caminho 2215" d="M911.413,598.849l5.621-3.266-22.912-13.228L888.5,585.62Z" transform="translate(-888.501 -582.354)" fill="#35c2da"/>
          </g>
          <g id="Grupo_708" data-name="Grupo 708" transform="translate(38.838 23.98)" style="isolation: isolate">
            <g id="Grupo_707" data-name="Grupo 707" clip-path="url(#clip-path-4)">
              <g id="Grupo_706" data-name="Grupo 706" style="isolation: isolate">
                <path id="Caminho_2216" data-name="Caminho 2216" d="M938.983,618.2l5.62-3.266a.747.747,0,0,0,.311-.682,2.08,2.08,0,0,0-.013-.209l-5.62,3.264c.007.072.012.142.012.208a.746.746,0,0,1-.309.685Z" transform="translate(-938.233 -612.416)" fill="#207684"/>
                <path id="Caminho_2217" data-name="Caminho 2217" d="M939.587,617.137l5.62-3.264a1.226,1.226,0,0,0-.028-.147l-5.619,3.266c.011.047.018.1.026.145Z" transform="translate(-938.54 -612.25)" fill="#217a89"/>
                <path id="Caminho_2218" data-name="Caminho 2218" d="M939.528,616.853l5.619-3.266c-.008-.042-.018-.081-.029-.122l-5.62,3.266c.01.042.02.083.03.122Z" transform="translate(-938.506 -612.111)" fill="#237f8e"/>
                <path id="Caminho_2219" data-name="Caminho 2219" d="M939.46,616.608l5.62-3.266c-.01-.036-.019-.072-.032-.108l-5.621,3.266c.013.039.022.072.033.108Z" transform="translate(-938.468 -611.988)" fill="#248393"/>
                <path id="Caminho_2220" data-name="Caminho 2220" d="M939.386,616.387l5.621-3.266a1.055,1.055,0,0,0-.036-.1l-5.621,3.269a.891.891,0,0,1,.036.1Z" transform="translate(-938.428 -611.875)" fill="#258898"/>
                <path id="Caminho_2221" data-name="Caminho 2221" d="M939.306,616.183l5.621-3.269c-.013-.031-.025-.064-.039-.094l-5.621,3.269a.889.889,0,0,1,.039.094Z" transform="translate(-938.383 -611.768)" fill="#268c9d"/>
                <path id="Caminho_2222" data-name="Caminho 2222" d="M939.222,615.985l5.621-3.269c-.014-.031-.026-.061-.04-.091l-5.62,3.266c.014.031.026.061.04.095Z" transform="translate(-938.338 -611.665)" fill="#2891a2"/>
                <path id="Caminho_2223" data-name="Caminho 2223" d="M939.128,615.79l5.62-3.266c-.016-.031-.033-.061-.047-.089l-5.621,3.266c.016.031.031.058.047.089Z" transform="translate(-938.285 -611.564)" fill="#2995a7"/>
                <path id="Caminho_2224" data-name="Caminho 2224" d="M939.024,615.6l5.62-3.266a.921.921,0,0,0-.05-.089l-5.621,3.267c.018.03.036.061.05.089Z" transform="translate(-938.228 -611.463)" fill="#2a9aac"/>
                <path id="Caminho_2225" data-name="Caminho 2225" d="M938.913,615.411l5.621-3.267a1.036,1.036,0,0,0-.054-.089l-5.621,3.266a.715.715,0,0,1,.054.089Z" transform="translate(-938.167 -611.362)" fill="#2b9eb1"/>
                <path id="Caminho_2226" data-name="Caminho 2226" d="M938.79,615.218l5.621-3.266c-.021-.033-.041-.061-.061-.092l-5.62,3.266c.022.028.04.061.061.091Z" transform="translate(-938.098 -611.259)" fill="#2da3b6"/>
                <path id="Caminho_2227" data-name="Caminho 2227" d="M938.65,615.017l5.62-3.266c-.023-.033-.044-.064-.071-.1l-5.62,3.269a1.165,1.165,0,0,1,.07.094Z" transform="translate(-938.019 -611.148)" fill="#2ea7bb"/>
                <path id="Caminho_2228" data-name="Caminho 2228" d="M938.483,614.8l5.619-3.267c-.028-.036-.057-.069-.084-.1L938.4,614.7c.028.033.057.066.086.105Z" transform="translate(-937.921 -611.032)" fill="#2facc0"/>
                <path id="Caminho_2229" data-name="Caminho 2229" d="M938.265,614.556l5.621-3.267c-.039-.044-.076-.086-.117-.128l-5.621,3.269a1.636,1.636,0,0,1,.117.125Z" transform="translate(-937.789 -610.887)" fill="#30b0c5"/>
                <path id="Caminho_2230" data-name="Caminho 2230" d="M937.741,614.12l5.621-3.269a1.882,1.882,0,0,0-.36-.275l-5.62,3.266a1.746,1.746,0,0,1,.359.278Z" transform="translate(-937.382 -610.576)" fill="#32b5ca"/>
              </g>
            </g>
          </g>
          <g id="Grupo_710" data-name="Grupo 710" transform="translate(14.863 13.871)">
            <g id="Grupo_709" data-name="Grupo 709">
              <path id="Caminho_2232" data-name="Caminho 2232" d="M887.3,589.156c-.587-.339-1.06-.069-1.062.605a2.325,2.325,0,0,0,1.054,1.834L910.2,604.821c.591.344,1.065.072,1.067-.607a2.312,2.312,0,0,0-1.06-1.829Z" transform="translate(-886.234 -589.01)" fill="#383f51"/>
            </g>
          </g>
          <g id="Grupo_714" data-name="Grupo 714" transform="translate(0.273 3.264)">
            <g id="Grupo_713" data-name="Grupo 713">
              <g id="Grupo_712" data-name="Grupo 712">
                <g id="Grupo_711" data-name="Grupo 711">
                  <path id="Caminho_2233" data-name="Caminho 2233" d="M859.49,566.977c-2.407-1.39-4.364-.269-4.371,2.5l-.013,3.89,53.155,30.689.011-3.89a9.586,9.586,0,0,0-4.35-7.531Zm11.261,12.6a2.324,2.324,0,0,1-1.054-1.834c0-.675.476-.944,1.063-.605l22.912,13.228a2.311,2.311,0,0,1,1.06,1.829c0,.68-.476.952-1.067.607l-22.913-13.225Z" transform="translate(-855.107 -566.38)" fill="#9ca8c1"/>
                </g>
              </g>
            </g>
          </g>
          <path id="Caminho_2234" data-name="Caminho 2234" d="M860.234,562.939c-.106-.042-.209-.078-.31-.108-.065-.02-.129-.039-.19-.053s-.124-.028-.185-.041c-.076-.011-.151-.025-.226-.034-.044-.005-.087-.011-.133-.014-.094-.006-.187-.008-.279-.006-.021,0-.041,0-.065,0a1.977,1.977,0,0,0-.319.042.449.449,0,0,0-.081.016,2.384,2.384,0,0,0-.237.067c-.024.008-.05.017-.075.028a2.1,2.1,0,0,0-.283.136l5.619-3.267a.127.127,0,0,1,.024-.014,1.587,1.587,0,0,1,.22-.105.215.215,0,0,1,.04-.017c.023-.011.052-.019.075-.028.039-.014.076-.028.114-.039s.082-.019.123-.028l.081-.019.04-.008a2.148,2.148,0,0,1,.265-.031h.014c.022,0,.047,0,.068,0,.068,0,.136,0,.205,0a.708.708,0,0,1,.071.008,1.143,1.143,0,0,1,.13.014.957.957,0,0,1,.125.008c.036.006.072.017.108.025.059.011.115.023.174.039a.729.729,0,0,1,.1.019c.03.008.065.023.1.034.1.03.2.067.309.105.035.014.069.022.1.039s.041.023.062.028c.178.08.359.166.548.275L911,585.663a6.3,6.3,0,0,1,.681.464c.037.025.075.052.111.08a7.9,7.9,0,0,1,.614.541c.017.016.035.028.05.044.032.03.06.067.091.1.1.1.2.208.3.314.029.033.061.064.09.1s.049.058.072.089c.06.069.117.139.173.211.036.045.074.086.108.133s.059.078.086.117.079.105.12.161c.026.038.057.075.085.113l.136.205c.025.039.054.081.081.122.012.016.025.033.035.05.077.122.154.244.229.369,0,.011.011.022.015.03s.022.042.034.061c.054.091.1.186.155.28.022.039.042.083.064.125s.042.086.066.128.038.078.059.116c.046.1.093.2.137.3.008.022.019.041.029.064a.041.041,0,0,0,.006.014c.057.131.11.258.161.391.011.025.017.047.028.072.016.047.032.1.05.144.022.067.048.13.069.194s.031.1.045.153.038.12.056.18c.011.039.024.075.035.114.019.064.033.13.049.2s.04.15.055.225c.007.028.014.052.02.078.011.053.015.105.028.158.021.116.041.233.058.35.006.033.014.064.018.1s0,.058,0,.089a5.983,5.983,0,0,1,.05.763l-.011,3.891-5.621,3.266.011-3.89a5.988,5.988,0,0,0-.048-.763c-.007-.061-.014-.125-.023-.186-.017-.117-.038-.233-.059-.35-.017-.078-.03-.158-.047-.236s-.037-.153-.054-.228c-.026-.1-.052-.2-.083-.305-.018-.061-.038-.125-.059-.189-.036-.114-.075-.227-.114-.341l-.05-.144c-.062-.161-.125-.319-.194-.477-.011-.025-.022-.047-.032-.072-.061-.133-.123-.266-.188-.4-.025-.047-.05-.095-.074-.142-.064-.125-.132-.25-.2-.372-.019-.033-.037-.066-.054-.1-.089-.149-.179-.3-.273-.441-.028-.045-.056-.086-.086-.13-.071-.1-.14-.208-.214-.308-.04-.056-.08-.111-.123-.164-.064-.086-.129-.169-.2-.255-.057-.067-.114-.136-.169-.2s-.112-.128-.169-.188c-.095-.108-.189-.211-.289-.314l-.144-.142a7.159,7.159,0,0,0-.612-.539c-.038-.03-.076-.058-.116-.086a6.293,6.293,0,0,0-.679-.458l-44.433-25.655a5.225,5.225,0,0,0-.546-.272C860.347,562.981,860.288,562.958,860.234,562.939Z" transform="translate(-856.292 -559.416)" fill="#b3bdd6"/>
        </g>
      </g>
      <g id="Grupo_722" data-name="Grupo 722" transform="translate(876.344 613.88)">
        <path id="Caminho_2235" data-name="Caminho 2235" d="M932.064,678.374c-5.6-3.231-10.666-3.53-14.327-1.4l-10.788,6.322.036-.02c-3.635,2.092-5.89,6.565-5.909,12.933-.036,12.777,8.948,28.34,20.068,34.759,5.665,3.271,10.791,3.536,14.462,1.32-.046.027-.09.056-.136.083l10.788-6.322c3.614-2.1,5.855-6.566,5.873-12.914C952.168,700.356,943.183,684.794,932.064,678.374Z" transform="translate(-901.077 -675.612)" fill="#3e3d43"/>
        <g id="Grupo_717" data-name="Grupo 717" transform="translate(3.875 4.039)" style="isolation: isolate">
          <path id="Caminho_2236" data-name="Caminho 2236" d="M943.792,702c7.844,13.587,7.8,28.248-.093,32.747-3.948,2.249-9.112,1.533-14.269-1.445S919.123,725.09,915.2,718.3c-7.844-13.587-7.8-28.248.093-32.747,3.948-2.25,9.112-1.533,14.269,1.445S939.87,695.21,943.792,702Z" transform="translate(-909.345 -684.229)" fill="#e0e0e2"/>
        </g>
        <path id="Caminho_2237" data-name="Caminho 2237" d="M945.955,722.777,946,707.539l-1.415-.817-2.873,1.67-.043,15.238,0,1.625,1.415.817,8.273,4.776,2.873-1.67,0-1.625Z" transform="translate(-922.639 -692.14)" fill="#3e3d43"/>
        <g id="Grupo_719" data-name="Grupo 719" transform="translate(19.023 14.582)" style="isolation: isolate">
          <path id="Caminho_2238" data-name="Caminho 2238" d="M944.691,742.644l2.873-1.67,8.273,4.776-2.873,1.67Z" transform="translate(-943.271 -724.919)" fill="#57565c"/>
          <g id="Grupo_718" data-name="Grupo 718" transform="translate(1.42 0.817)">
            <path id="Caminho_2239" data-name="Caminho 2239" d="M962.335,752.834l2.873-1.67,0,1.625-2.873,1.67Z" transform="translate(-954.063 -731.15)" fill="#2e2e30"/>
            <path id="Caminho_2240" data-name="Caminho 2240" d="M944.734,710.134l2.873-1.67-.043,15.238-2.873,1.67Z" transform="translate(-944.691 -708.465)" fill="#2e2e30"/>
          </g>
          <path id="Caminho_2241" data-name="Caminho 2241" d="M941.764,708.391l2.873-1.67,1.415.817-2.873,1.67Z" transform="translate(-941.716 -706.722)" fill="#57565c"/>
          <path id="Caminho_2242" data-name="Caminho 2242" d="M943.125,711.1l-.043,15.238,8.273,4.776,0,1.625-8.273-4.776-1.415-.817,0-1.625.043-15.238Z" transform="translate(-941.662 -708.614)" fill="#3e3d43"/>
        </g>
        <path id="Caminho_2243" data-name="Caminho 2243" d="M932.064,678.374c-5.6-3.231-10.666-3.53-14.327-1.4l-10.788,6.322.035-.02c-3.634,2.092-5.89,6.565-5.908,12.933-.036,12.777,8.948,28.339,20.068,34.759,5.665,3.271,10.791,3.536,14.462,1.32-.046.028-.09.056-.136.083l10.788-6.322c3.614-2.1,5.855-6.566,5.873-12.914C952.168,700.356,943.183,684.794,932.064,678.374Zm2.455,47.779c-2.653.628-5.891.029-9.382-1.987-8.964-5.175-16.2-17.718-16.175-28.018.011-3.948,1.09-6.992,2.92-8.954,2.653-.627,5.891-.027,9.382,1.989,8.963,5.175,16.2,17.718,16.176,28.017C937.428,721.148,936.349,724.191,934.519,726.154Z" transform="translate(-901.077 -675.612)" fill="#3e3d43"/>
        <g id="Grupo_721" data-name="Grupo 721" style="isolation: isolate">
          <path id="Caminho_2244" data-name="Caminho 2244" d="M914.144,699.53l3.979-2.312c-2.913,1.693-4.719,5.293-4.734,10.409-.029,10.3,7.212,22.843,16.175,28.018l-3.979,2.312c-8.963-5.175-16.2-17.718-16.175-28.018C909.424,704.823,911.23,701.223,914.144,699.53Z" transform="translate(-905.504 -687.091)" fill="#3164ff"/>
          <g id="Grupo_720" data-name="Grupo 720" transform="translate(5.873)">
            <path id="Caminho_2245" data-name="Caminho 2245" d="M959.445,780.331l-3.979,2.313c-2.951,1.715-7.037,1.473-11.547-1.131L947.9,779.2C952.408,781.8,956.495,782.046,959.445,780.331Z" transform="translate(-929.711 -730.646)" fill="#7f9fff"/>
            <path id="Caminho_2246" data-name="Caminho 2246" d="M913.607,683.293l10.788-6.321c3.661-2.128,8.731-1.828,14.327,1.4L927.934,684.7C922.338,681.465,917.268,681.165,913.607,683.293Z" transform="translate(-913.607 -675.612)" fill="#7f9fff"/>
          </g>
          <path id="Caminho_2247" data-name="Caminho 2247" d="M969.154,729.177,958.366,735.5c3.614-2.1,5.855-6.566,5.873-12.914.037-12.776-8.948-28.338-20.067-34.758l10.788-6.322c11.119,6.42,20.1,21.981,20.068,34.758C975.009,722.611,972.768,727.077,969.154,729.177Z" transform="translate(-923.972 -678.743)" fill="#3164ff"/>
          <path id="Caminho_2248" data-name="Caminho 2248" d="M921.276,691.861c11.119,6.42,20.1,21.981,20.067,34.758s-9.079,17.931-20.2,11.511-20.1-21.982-20.068-34.759S910.157,685.441,921.276,691.861Zm-.118,41.783c8.963,5.175,16.252,1.02,16.281-9.279s-7.213-22.843-16.175-28.017-16.252-1.021-16.282,9.278,7.212,22.843,16.176,28.018" transform="translate(-901.077 -682.778)" fill="#5983ff"/>
        </g>
      </g>
    </g>
  </g>
</svg>
