<svg xmlns="http://www.w3.org/2000/svg" width="160" height="160" viewBox="0 0 160 160">
  <g id="Grupo_1071" data-name="Grupo 1071" transform="translate(-110 -2505)">
    <rect id="Retângulo_1618" data-name="Retângulo 1618" width="160" height="160" transform="translate(110 2505)" fill="none"/>
    <g id="Grupo_1069" data-name="Grupo 1069" transform="translate(-1252 2043.5)">
      <g id="Grupo_724" data-name="Grupo 724" transform="translate(1428.818 471.5)">
        <path id="Caminho_2249" data-name="Caminho 2249" d="M1474.332,516.057a13.568,13.568,0,0,1-13.582-13.582V472.991a1.491,1.491,0,0,1,2.981,0v29.483a10.6,10.6,0,0,0,21.2,0V472.991a1.491,1.491,0,0,1,2.981,0v29.483A13.6,13.6,0,0,1,1474.332,516.057Z" transform="translate(-1460.75 -471.5)"/>
      </g>
      <path id="Caminho_2250" data-name="Caminho 2250" d="M1413,625.432l50.354,28.821V574.416L1438.177,534,1413,544.932Z" transform="translate(0 -41.795)" fill="#3164ff"/>
      <path id="Caminho_2251" data-name="Caminho 2251" d="M1572.619,722.506,1565,727.144V647.307l7.619-4.307Z" transform="translate(-101.646 -114.686)" fill="#5983ff"/>
      <path id="Caminho_2252" data-name="Caminho 2252" d="M1496.619,521,1489,525.307l25.177,40.416,7.619-4.307Z" transform="translate(-50.823 -33.102)" fill="#7f9fff"/>
      <path id="Caminho_2253" data-name="Caminho 2253" d="M1445.8,521l-7.619,4.307L1413,536.239l7.951-4.307Z" transform="translate(0 -33.102)" fill="#5983ff"/>
      <g id="Grupo_727" data-name="Grupo 727" transform="translate(1422.628 539.577)">
        <g id="Grupo_725" data-name="Grupo 725" transform="translate(1.503 0)" opacity="0.5">
          <path id="Caminho_2254" data-name="Caminho 2254" d="M1452.824,695.062a6.362,6.362,0,0,0,2.78.977c.088,0,.167-.008.251-.011l-.364,1.073,2.076-1.7a4.052,4.052,0,0,0,1.156-2.07,12.7,12.7,0,0,0,.384-3.343,20.79,20.79,0,0,0-.273-3.439,13.451,13.451,0,0,0-.985-3.284,12.265,12.265,0,0,0-1.889-2.936,11.424,11.424,0,0,0-2.931-2.374,6.083,6.083,0,0,0-2.8-.955,2.637,2.637,0,0,0-1.936.685l-1.693,1.425.76.056c-.071.188-.137.384-.2.593a12.447,12.447,0,0,0-.374,3.223,20.276,20.276,0,0,0,.336,3.821,13.525,13.525,0,0,0,1.057,3.3,11.4,11.4,0,0,0,1.881,2.784A11.588,11.588,0,0,0,1452.824,695.062Zm-2.728-12.813a3.711,3.711,0,0,1,.543-1.448,1.143,1.143,0,0,1,.95-.521,2.535,2.535,0,0,1,1.349.423,5.173,5.173,0,0,1,1.411,1.181,5.763,5.763,0,0,1,.963,1.667,10.288,10.288,0,0,1,.532,2.153,18,18,0,0,1,.175,2.627,17.013,17.013,0,0,1-.153,2.344,4.056,4.056,0,0,1-.5,1.517,1.212,1.212,0,0,1-.905.62,2.613,2.613,0,0,1-1.45-.46,5.815,5.815,0,0,1-1.338-1.045,4.971,4.971,0,0,1-.973-1.494,9.849,9.849,0,0,1-.6-2.179,19.15,19.15,0,0,1-.2-3.009A13.4,13.4,0,0,1,1450.1,682.249Z" transform="translate(-1446.601 -677)" fill="#a7a9ac"/>
          <path id="Caminho_2255" data-name="Caminho 2255" d="M1509.624,765.6a13.509,13.509,0,0,0-.994-3.289,12.388,12.388,0,0,0-1.88-2.931,11.222,11.222,0,0,0-2.932-2.373,6.054,6.054,0,0,0-2.8-.955,2.761,2.761,0,0,0-1.569.392v0l-.032.027a2.417,2.417,0,0,0-.344.263c-.027.025-.05.058-.076.085l-1.617,1.34.7.254c-.044.132-.09.258-.128.4a12.449,12.449,0,0,0-.374,3.223,20.248,20.248,0,0,0,.327,3.816,13.54,13.54,0,0,0,1.068,3.31,11.129,11.129,0,0,0,1.871,2.778,11.681,11.681,0,0,0,2.767,2.175,6.412,6.412,0,0,0,2.78.975,3.324,3.324,0,0,0,.362-.017l.075.634,1.373-1.134-.009-.006c.053-.04.112-.071.163-.115a4.24,4.24,0,0,0,1.155-2.07,13.121,13.121,0,0,0,.384-3.343A20.825,20.825,0,0,0,1509.624,765.6Zm-2.977,4.122a3.9,3.9,0,0,1-.487,1.521,1.155,1.155,0,0,1-.914.605,2.506,2.506,0,0,1-1.45-.45,6.084,6.084,0,0,1-1.338-1.044,5.043,5.043,0,0,1-.963-1.489,9.093,9.093,0,0,1-.6-2.179,19.156,19.156,0,0,1-.2-3.01,13.524,13.524,0,0,1,.18-2.38,3.489,3.489,0,0,1,.552-1.443,1.158,1.158,0,0,1,.941-.526,2.562,2.562,0,0,1,1.349.422,5.183,5.183,0,0,1,1.42,1.186,5.714,5.714,0,0,1,.953,1.663,9.86,9.86,0,0,1,.541,2.157,17.941,17.941,0,0,1,.166,2.622A15.532,15.532,0,0,1,1506.647,769.72Z" transform="translate(-1480.56 -729.862)" fill="#a7a9ac"/>
          <path id="Caminho_2256" data-name="Caminho 2256" d="M1478.979,710.89a.789.789,0,0,0-.1-.5,1.835,1.835,0,0,0-.427-.509,4.668,4.668,0,0,0-.765-.536c-.31-.179-.564-.305-.766-.4a2.673,2.673,0,0,0-.528-.19.676.676,0,0,0-.383,0,.5.5,0,0,0-.274.177l-1.693,1.425h.352L1455.741,730.2a.828.828,0,0,0-.211.423.77.77,0,0,0,.09.461,1.957,1.957,0,0,0,.418.514,4.678,4.678,0,0,0,.783.546c.213.123.4.222.568.309l-.6,1.707,1.754-1.449a.389.389,0,0,0,.2-.169l20.023-21.243A.7.7,0,0,0,1478.979,710.89Z" transform="translate(-1452.568 -698.219)" fill="#a7a9ac"/>
        </g>
        <g id="Grupo_726" data-name="Grupo 726" transform="translate(0 1.425)">
          <path id="Caminho_2257" data-name="Caminho 2257" d="M1448.1,699.365a6.355,6.355,0,0,0,2.78.976,2.715,2.715,0,0,0,1.964-.638,4.054,4.054,0,0,0,1.155-2.07,12.693,12.693,0,0,0,.384-3.343,20.824,20.824,0,0,0-.273-3.439,13.459,13.459,0,0,0-.985-3.284,12.287,12.287,0,0,0-1.889-2.936,11.438,11.438,0,0,0-2.931-2.374,6.09,6.09,0,0,0-2.8-.955,2.639,2.639,0,0,0-1.936.685,4.391,4.391,0,0,0-1.128,2.074,12.452,12.452,0,0,0-.374,3.223,20.287,20.287,0,0,0,.336,3.821,13.491,13.491,0,0,0,1.058,3.305,11.4,11.4,0,0,0,1.88,2.784A11.607,11.607,0,0,0,1448.1,699.365Zm-2.727-12.814a3.7,3.7,0,0,1,.542-1.448,1.142,1.142,0,0,1,.95-.52,2.531,2.531,0,0,1,1.349.422,5.171,5.171,0,0,1,1.411,1.182,5.763,5.763,0,0,1,.962,1.667,10.252,10.252,0,0,1,.532,2.153,18.058,18.058,0,0,1,.175,2.628,16.987,16.987,0,0,1-.152,2.344,4.08,4.08,0,0,1-.5,1.516,1.212,1.212,0,0,1-.905.62,2.612,2.612,0,0,1-1.449-.459,5.821,5.821,0,0,1-1.339-1.046,4.971,4.971,0,0,1-.972-1.494,9.836,9.836,0,0,1-.6-2.178,19.16,19.16,0,0,1-.2-3.01A13.258,13.258,0,0,1,1445.371,686.551Z" transform="translate(-1442.065 -681.302)" fill="#fff"/>
          <path id="Caminho_2258" data-name="Caminho 2258" d="M1504.916,769.9a13.5,13.5,0,0,0-.994-3.288,12.33,12.33,0,0,0-1.88-2.931,11.2,11.2,0,0,0-2.931-2.373,6.058,6.058,0,0,0-2.8-.956,2.63,2.63,0,0,0-1.945.68,4.306,4.306,0,0,0-1.12,2.08,12.465,12.465,0,0,0-.374,3.223,20.338,20.338,0,0,0,.327,3.816,13.551,13.551,0,0,0,1.068,3.309,11.158,11.158,0,0,0,1.871,2.779,11.691,11.691,0,0,0,2.769,2.174,6.407,6.407,0,0,0,2.779.977,2.751,2.751,0,0,0,1.964-.637,4.25,4.25,0,0,0,1.156-2.07,13.171,13.171,0,0,0,.383-3.343A20.818,20.818,0,0,0,1504.916,769.9Zm-2.976,4.121a3.934,3.934,0,0,1-.488,1.521,1.151,1.151,0,0,1-.915.6,2.5,2.5,0,0,1-1.45-.449,6.139,6.139,0,0,1-1.337-1.044,5.045,5.045,0,0,1-.964-1.488,9.132,9.132,0,0,1-.6-2.18,19.049,19.049,0,0,1-.2-3.009,13.377,13.377,0,0,1,.18-2.381,3.5,3.5,0,0,1,.551-1.442,1.157,1.157,0,0,1,.942-.526,2.548,2.548,0,0,1,1.349.422,5.181,5.181,0,0,1,1.419,1.187,5.7,5.7,0,0,1,.953,1.662,9.813,9.813,0,0,1,.541,2.158,17.812,17.812,0,0,1,.166,2.622A15.664,15.664,0,0,1,1501.94,774.021Z" transform="translate(-1476.042 -734.163)" fill="#fff"/>
          <path id="Caminho_2259" data-name="Caminho 2259" d="M1473.871,715.192a.776.776,0,0,0-.1-.5,1.834,1.834,0,0,0-.427-.509,4.6,4.6,0,0,0-.765-.536c-.309-.179-.564-.305-.766-.4a2.661,2.661,0,0,0-.528-.19.673.673,0,0,0-.383,0,.5.5,0,0,0-.274.177l-20,21.27a.819.819,0,0,0-.211.423.75.75,0,0,0,.09.461,1.942,1.942,0,0,0,.417.514,4.859,4.859,0,0,0,.783.546c.292.168.548.3.757.405a3.257,3.257,0,0,0,.528.179,1.255,1.255,0,0,0,.374.006.353.353,0,0,0,.265-.192l20.023-21.244A.7.7,0,0,0,1473.871,715.192Z" transform="translate(-1447.65 -702.521)" fill="#fff"/>
        </g>
      </g>
      <g id="Grupo_728" data-name="Grupo 728" transform="translate(1432.23 507.232)">
        <path id="Caminho_2260" data-name="Caminho 2260" d="M1478.126,585.888c-1.411-2.443-3.487-3.885-4.638-3.221-.234.135-.977.668-1.166.777-1.151.665-.941,3.184.47,5.627s3.487,3.885,4.638,3.221c.233-.135.977-.669,1.166-.777C1479.747,590.85,1479.537,588.331,1478.126,585.888Z" transform="translate(-1471.404 -581.464)" fill="#7f9fff"/>
        <ellipse id="Elipse_1690" data-name="Elipse 1690" cx="2.406" cy="5.108" rx="2.406" ry="5.108" transform="translate(0 2.406) rotate(-30)" fill="#fff"/>
      </g>
      <g id="Grupo_729" data-name="Grupo 729" transform="translate(1428.818 487.898)">
        <path id="Caminho_2261" data-name="Caminho 2261" d="M1471.692,548.9a13.606,13.606,0,0,1-10.942-13.326V521h2.981v14.576a10.624,10.624,0,0,0,7.616,10.176c.3.088.748,1.75.748,2.081v.994Z" transform="translate(-1460.75 -521)"/>
      </g>
    </g>
  </g>
</svg>
