<svg xmlns="http://www.w3.org/2000/svg" width="160" height="160.167" viewBox="0 0 160 160.167">
  <g id="Grupo_1072" data-name="Grupo 1072" transform="translate(360 -2505)">
    <rect id="Retângulo_1616" data-name="Retângulo 1616" width="160" height="160" transform="translate(-360 2505)" fill="none"/>
    <g id="Grupo_1067" data-name="Grupo 1067" transform="translate(-937.67 2033.471)">
      <g id="Grupo_683" data-name="Grupo 683" transform="translate(622.67 471.529)">
        <g id="Grupo_678" data-name="Grupo 678" transform="translate(0 106.744)">
          <path id="Caminho_2139" data-name="Caminho 2139" d="M698.295,728.224,622.67,711.9v9.681l51.983,30.03Z" transform="translate(-622.67 -698.187)" fill="#3164ff"/>
          <path id="Caminho_2140" data-name="Caminho 2140" d="M726.4,767.862l23.641-13.7v-9.681L726.4,758.18Z" transform="translate(-674.419 -714.439)" fill="#5983ff"/>
          <path id="Caminho_2141" data-name="Caminho 2141" d="M674.653,728.279l23.641-13.7-51.973-30.037L622.67,698.249Z" transform="translate(-622.67 -684.537)" fill="#7f9fff"/>
        </g>
        <path id="Caminho_2142" data-name="Caminho 2142" d="M695.72,495.692,654.691,472a2.519,2.519,0,0,0-2.39-.283l-19.94,11.523,8.892,19.327,9.928-3.691v81.709l28.358,39.1,19.688-11.362V501.764A7.77,7.77,0,0,0,695.72,495.692Z" transform="translate(-627.504 -471.529)" fill="#b3bdd6"/>
        <g id="Grupo_679" data-name="Grupo 679" transform="translate(63.762 57.897)">
          <path id="Caminho_2143" data-name="Caminho 2143" d="M757.42,616.639l-2.456,4.455-1.231.713-3.826-34.034,1.231-.711,6.282,12.564Z" transform="translate(-749.907 -587.062)" fill="#3164ff"/>
          <path id="Caminho_2144" data-name="Caminho 2144" d="M756.189,618.058l-2.456,4.457-3.826-2.208V588.482l6.282,12.564Z" transform="translate(-749.907 -587.77)" fill="#5983ff"/>
        </g>
        <g id="Grupo_680" data-name="Grupo 680" transform="translate(61.585 132.008)">
          <path id="Caminho_2145" data-name="Caminho 2145" d="M748.075,735.047l1.356.785-2.083,3.608-1.356-.779a1.044,1.044,0,0,1-.43-.956,3.252,3.252,0,0,1,1.474-2.553A1.042,1.042,0,0,1,748.075,735.047Z" transform="translate(-745.562 -734.951)" fill="#535359"/>
          <path id="Caminho_2146" data-name="Caminho 2146" d="M749.74,736.708a3.283,3.283,0,0,0-1.472,2.559c0,.939.66,1.314,1.468.844a3.238,3.238,0,0,0,1.478-2.551C751.214,736.625,750.557,736.242,749.74,736.708Z" transform="translate(-746.912 -735.728)" fill="#303033"/>
          <path id="Caminho_2147" data-name="Caminho 2147" d="M751.407,738.616a1.986,1.986,0,0,1-.906,1.573c-.325.19-.605.159-.769-.044a.789.789,0,0,0,.448-.121,1.985,1.985,0,0,0,.907-1.576.753.753,0,0,0-.136-.478C751.223,737.991,751.409,738.228,751.407,738.616Z" transform="translate(-747.642 -736.457)" fill="#535359"/>
          <path id="Caminho_2148" data-name="Caminho 2148" d="M750.949,738.446a1.985,1.985,0,0,1-.906,1.576.789.789,0,0,1-.448.121.753.753,0,0,1-.138-.478,2.017,2.017,0,0,1,.909-1.58.8.8,0,0,1,.448-.117A.754.754,0,0,1,750.949,738.446Z" transform="translate(-747.505 -736.455)" fill="#121214"/>
        </g>
        <g id="Grupo_681" data-name="Grupo 681" transform="translate(59.71 62.066)">
          <path id="Caminho_2149" data-name="Caminho 2149" d="M756.769,693.834a23.257,23.257,0,0,1-7.3-1.9s-.188-.241.159-1.009a1.464,1.464,0,0,1,.857-.89c4,1.62,7.189,2.2,8.5,1.119,2.491-2.047,1.094-9.3-.521-17.7-1.783-9.262-4-20.8-2.066-30.859a1.012,1.012,0,0,1,1.987.383c-1.861,9.679.317,21,2.068,30.094,1.81,9.406,3.24,16.834-.18,19.649A5.318,5.318,0,0,1,756.769,693.834Z" transform="translate(-745.61 -618.526)" fill="#1d374e"/>
          <path id="Caminho_2150" data-name="Caminho 2150" d="M759.095,627.272c-3.236-1.018-1.428,4.311-1.428,4.311a3.809,3.809,0,0,0,2.286.127l.542,1.235-.307,1.064-3.991-1.466-.567-5.125.751-1.639.012-.429,2.6,1.5A1.156,1.156,0,0,0,759.095,627.272Z" transform="translate(-748.71 -610.332)" fill="#0f2034"/>
          <path id="Caminho_2151" data-name="Caminho 2151" d="M761.722,622.921l-.03-1.819-2.094-4.607-1.034-.666-.137-.01-.941-1.959-1.561.222-1.954,1.127,1.483.963-1.2.632.962.334.427,2.433,1.918,1.057,1.825,9.218,1.952-1.125-.214-5.451Z" transform="translate(-747.883 -604.6)" fill="#c7a200"/>
          <path id="Caminho_2152" data-name="Caminho 2152" d="M758.1,628.894a15.784,15.784,0,0,1,.736,3.059,2.944,2.944,0,0,1,1.246.719l-.176-3.625Z" transform="translate(-749.941 -612.1)" fill="#e31b25"/>
          <path id="Caminho_2153" data-name="Caminho 2153" d="M757.65,628.434c-3.234-1.022-1.427,4.308-1.427,4.308a3.828,3.828,0,0,0,2.284.131l.544,1.231-.311,1.064-3.429-1.7-.616-5.694.245-.836.008-.429,2.6,1.5A1.141,1.141,0,0,0,757.65,628.434Z" transform="translate(-748.244 -610.91)" fill="#1d374e"/>
          <path id="Caminho_2154" data-name="Caminho 2154" d="M758.428,624.824l.628.349-.029-1.819-2.094-4.613-1.036-.666-.137-.008-.941-1.959-1.561.222.444,1.606h0l-.165-.011-.994,1.459.431,2.435,3.52,1.94.662,6.5,1.512.708-.241-6.144Z" transform="translate(-747.171 -605.721)" fill="#ffcf00"/>
          <path id="Caminho_2155" data-name="Caminho 2155" d="M748.29,605.912a26.4,26.4,0,0,0-1.95-4.148,58.391,58.391,0,0,0-4.518-4.465l2.073-1.918a61.294,61.294,0,0,1,4.776,4.754,28.832,28.832,0,0,1,2.229,4.66Z" transform="translate(-741.822 -595.381)" fill="#a7a9ac"/>
        </g>
        <path id="Caminho_2156" data-name="Caminho 2156" d="M678.675,631,630.63,603.265V496.708c0-2.229,1.579-3.139,3.509-2.024l41.027,23.687a7.787,7.787,0,0,1,3.509,6.077Z" transform="translate(-626.641 -482.843)" fill="#9ca8c1"/>
        <path id="Caminho_2157" data-name="Caminho 2157" d="M678.65,562.441l-37.573-21.693,0-25.214,37.571,21.691Z" transform="translate(-631.853 -493.482)" fill="#717c87"/>
        <path id="Caminho_2158" data-name="Caminho 2158" d="M678.644,561.419v1.013l-34.895-20.147v-23.1l.872.5V541.78Z" transform="translate(-633.186 -495.306)" fill="#383f51"/>
        <path id="Caminho_2159" data-name="Caminho 2159" d="M679.512,539.838V561.92L645.49,542.281V520.193Z" transform="translate(-634.054 -495.806)" fill="#383f51"/>
        <g id="Grupo_682" data-name="Grupo 682" transform="translate(59.276 57.897)">
          <path id="Caminho_2160" data-name="Caminho 2160" d="M748.468,619.228l-2.456,4.454-1.229.715-3.828-34.034,5.717-3.3,2.985,7.027-4.076,2.352,2.887,5.777Z" transform="translate(-740.955 -587.062)" fill="#3164ff"/>
          <path id="Caminho_2161" data-name="Caminho 2161" d="M747.237,623.224l-2.455,4.457-3.828-2.21V593.648l6.282,12.564Z" transform="translate(-740.955 -590.348)" fill="#5983ff"/>
        </g>
        <path id="Caminho_2162" data-name="Caminho 2162" d="M677.639,653.71c0,10.169-7.142,14.292-15.951,9.2s-15.946-17.451-15.946-27.627,7.138-14.293,15.946-9.2S677.639,643.541,677.639,653.71Z" transform="translate(-634.18 -547.544)" fill="#e2e5ef"/>
      </g>
      <g id="Grupo_685" data-name="Grupo 685" transform="translate(639.566 554.953)">
        <g id="Grupo_684" data-name="Grupo 684">
          <path id="Caminho_2163" data-name="Caminho 2163" d="M665.776,656.695c1.641.937,5.274,2.876,5.284.987.021-3.878-14.393-7.337-14.351-15.5.021-3.945,4.22-3.172,7.645-1.589l.013-2.6,3.667,2.093-.014,2.731c2.966,2.133,6,5.25,7,8.29l-3.606-.435c-.795-2.077-3.76-4.344-5.716-5.461-2.2-1.256-4.263-1.994-4.27-.713-.02,3.844,14.112,7.616,14.072,15.372-.023,4.35-3.84,4.031-7.543,2.356l-.012,2.327-3.7-2.113.012-2.293c-4.433-2.9-6.8-6.281-7.867-9.6l3.606.435C660.786,653.069,663.82,655.579,665.776,656.695Z" transform="translate(-656.385 -638)" fill="#748999"/>
        </g>
      </g>
      <g id="Grupo_687" data-name="Grupo 687" transform="translate(637.995 503.502)">
        <path id="Caminho_2164" data-name="Caminho 2164" d="M680.186,562.2,653.25,546.788V535.33l26.936,15.413Z" transform="translate(-653.25 -535.33)" fill="#4c5671"/>
        <g id="Grupo_686" data-name="Grupo 686" transform="translate(2.613 3.807)">
          <path id="Caminho_2165" data-name="Caminho 2165" d="M662.485,552.062l-4.02-2.3v-6.834l4.02,2.3Z" transform="translate(-658.465 -542.927)" fill="#e2e5ef"/>
          <path id="Caminho_2166" data-name="Caminho 2166" d="M671.309,557.112l-4.02-2.3v-6.834l4.02,2.3Z" transform="translate(-662.867 -545.446)" fill="#e2e5ef"/>
          <path id="Caminho_2167" data-name="Caminho 2167" d="M680.134,562.161l-4.02-2.3v-6.834l4.02,2.3Z" transform="translate(-667.269 -547.966)" fill="#e2e5ef"/>
          <path id="Caminho_2168" data-name="Caminho 2168" d="M688.959,567.211l-4.02-2.3v-6.834l4.02,2.3Z" transform="translate(-671.672 -550.485)" fill="#e2e5ef"/>
          <path id="Caminho_2169" data-name="Caminho 2169" d="M697.783,572.261l-4.02-2.3v-6.834l4.02,2.3Z" transform="translate(-676.074 -553.004)" fill="#e2e5ef"/>
        </g>
      </g>
    </g>
  </g>
</svg>
